<svg width="31" height="24" viewBox="0 0 31 24" fill="none" xmlns="http://www.w3.org/2000/svg">
<path d="M29.785 2.6483L20.535 0.0649694H20.4271C20.3553 0.0589265 20.283 0.0589265 20.2113 0.0649694H19.8567H19.6563H19.5483L10.7917 2.58372L2.035 0.0649694C1.80316 0.000917621 1.55648 -0.0160887 1.31526 0.0153498C1.07403 0.0467883 0.845172 0.125773 0.647505 0.245803C0.448258 0.364657 0.285622 0.521526 0.173034 0.703449C0.0604456 0.885373 0.00113614 1.08713 5.1392e-06 1.29205V19.3754C-0.000829152 19.6462 0.0999343 19.9103 0.288053 20.1305C0.476172 20.3507 0.742131 20.5158 1.04834 20.6025L10.2983 23.1858C10.6089 23.2706 10.9436 23.2706 11.2542 23.1858L20.0417 20.7316L28.7983 23.2504C28.962 23.269 29.128 23.269 29.2917 23.2504C29.614 23.2542 29.9287 23.1678 30.1858 23.005C30.3851 22.8861 30.5477 22.7292 30.6603 22.5473C30.7729 22.3654 30.8322 22.1636 30.8333 21.9587V3.87539C30.8342 3.6046 30.7334 3.34044 30.5453 3.12024C30.3572 2.90005 30.0912 2.73496 29.785 2.6483ZM9.25 20.1633L3.08334 18.4454V3.08747L9.25 4.80539V20.1633ZM18.5 18.4454L12.3333 20.1633V4.80539L18.5 3.08747V18.4454ZM27.75 20.1633L21.5833 18.4454V3.08747L27.75 4.80539V20.1633Z" fill="black"/>
</svg>
